<svg width="16" height="19" viewBox="0 0 16 19" fill="none" xmlns="http://www.w3.org/2000/svg">
<path d="M11.5213 0.79248C11.5635 0.79248 11.6057 0.79248 11.6504 0.79248C11.7539 2.07206 11.2655 3.02816 10.672 3.72054C10.0895 4.40813 9.29199 5.07501 8.00205 4.97382C7.916 3.71257 8.4052 2.82738 8.99799 2.1366C9.54774 1.49282 10.5556 0.91996 11.5213 0.79248Z" fill="white"/>
<path d="M15.4331 14.1111C15.4331 14.1238 15.4331 14.135 15.4331 14.1469C15.0706 15.2449 14.5535 16.1858 13.9224 17.0591C13.3464 17.8518 12.6405 18.9187 11.38 18.9187C10.2909 18.9187 9.56741 18.2183 8.45116 18.1992C7.27038 18.1801 6.62103 18.7848 5.54143 18.937C5.41794 18.937 5.29444 18.937 5.17333 18.937C4.38057 18.8223 3.74078 18.1944 3.27468 17.6287C1.90029 15.9572 0.838219 13.798 0.640625 11.0348C0.640625 10.7639 0.640625 10.4938 0.640625 10.2229C0.724284 8.24542 1.68516 6.63758 2.96235 5.85835C3.6364 5.44404 4.56302 5.09108 5.59481 5.24884C6.03701 5.31736 6.48877 5.46874 6.88475 5.61853C7.26002 5.76274 7.72931 6.0185 8.17389 6.00496C8.47506 5.99619 8.77464 5.83923 9.0782 5.72848C9.96738 5.40739 10.839 5.0393 11.9879 5.21219C13.3687 5.42094 14.3487 6.03444 14.9542 6.98097C13.7862 7.72434 12.8628 8.84457 13.0205 10.7576C13.1607 12.4953 14.171 13.5119 15.4331 14.1111Z" fill="white"/>
</svg>
