<svg width="36" height="36" viewBox="0 0 36 36" fill="none" xmlns="http://www.w3.org/2000/svg">
<path d="M30.1157 13.2825H22.1867L23.9222 8.94448C24.1703 8.32645 24.2316 7.64915 24.0982 6.99663C23.9649 6.34412 23.6429 5.74513 23.1722 5.27398C22.9074 5.0095 22.5883 4.80582 22.2369 4.67708C21.8856 4.54834 21.5104 4.49762 21.1374 4.52845C20.7645 4.55928 20.4027 4.67091 20.0772 4.85561C19.7518 5.0403 19.4704 5.29362 19.2527 5.59798L14.6162 12.0855C13.9242 13.0519 13.1546 13.9604 12.3152 14.802L10.8302 16.287C10.7626 16.3545 10.7089 16.4347 10.6724 16.523C10.6358 16.6113 10.6171 16.7059 10.6172 16.8015V27.963C10.6171 28.1564 10.6937 28.342 10.8302 28.479L12.4937 30.15C12.9174 30.5759 13.4215 30.9136 13.9766 31.1436C14.5317 31.3735 15.1269 31.4911 15.7277 31.4895H24.7667C25.4804 31.4889 26.1786 31.2816 26.777 30.8927C27.3754 30.5038 27.8484 29.9499 28.1387 29.298L32.5727 19.3215C32.8564 18.6852 33.0021 17.9961 33.0002 17.2995V16.1685C32.9994 15.4036 32.6953 14.6702 32.1546 14.1292C31.6138 13.5882 30.8806 13.2837 30.1157 13.2825Z" fill="white"/>
<path d="M5.6205 15.3105C4.9255 15.3105 4.25897 15.5866 3.76753 16.078C3.27609 16.5695 3 17.236 3 17.931V27.7845C3 28.4795 3.27609 29.146 3.76753 29.6375C4.25897 30.1289 4.9255 30.405 5.6205 30.405C6.3155 30.405 6.98203 30.1289 7.47347 29.6375C7.96491 29.146 8.241 28.4795 8.241 27.7845V17.931C8.241 17.236 7.96491 16.5695 7.47347 16.078C6.98203 15.5866 6.3155 15.3105 5.6205 15.3105Z" fill="white"/>
</svg>
