<svg width="34" height="32" viewBox="0 0 34 32" fill="none" xmlns="http://www.w3.org/2000/svg">
<path d="M31.8613 11.32C31.2048 11.2247 30.5783 10.9824 30.0285 10.6114C29.4786 10.2404 29.0195 9.75006 28.6854 9.177C28.3513 8.60393 28.1508 7.96288 28.0988 7.30158C28.0468 6.64028 28.1446 5.97576 28.385 5.35752C28.5379 4.95333 28.5604 4.51146 28.4494 4.09384C28.3384 3.67621 28.0996 3.30379 27.7663 3.02877C26.2948 1.79314 24.6199 0.822466 22.8163 0.160017C22.4056 0.00744821 21.9572 -0.0116142 21.535 0.105546C21.1128 0.222706 20.7384 0.470112 20.465 0.812517C20.0536 1.33863 19.5277 1.76414 18.9274 2.05678C18.327 2.34942 17.6679 2.50151 17 2.50151C16.3321 2.50151 15.673 2.34942 15.0727 2.05678C14.4723 1.76414 13.9465 1.33863 13.535 0.812517C13.2617 0.470112 12.8872 0.222706 12.4651 0.105546C12.0429 -0.0116142 11.5945 0.00744821 11.1838 0.160017C9.5184 0.771615 7.96131 1.6451 6.57127 2.74752C6.22089 3.0249 5.96851 3.40718 5.85109 3.83837C5.73368 4.26957 5.7574 4.72703 5.91877 5.14377C6.17837 5.77837 6.28563 6.46498 6.23194 7.14852C6.17826 7.83206 5.96512 8.4935 5.60962 9.07979C5.25413 9.66608 4.76618 10.1609 4.18492 10.5245C3.60365 10.8882 2.94525 11.1105 2.26252 11.1738C1.81928 11.2212 1.40297 11.4096 1.07487 11.7114C0.74678 12.0131 0.524242 12.4123 0.440024 12.85C0.230547 13.8869 0.125024 14.9422 0.125024 16C0.123485 16.8856 0.194977 17.7699 0.338774 18.6438C0.410341 19.0955 0.628739 19.5111 0.960202 19.8263C1.29166 20.1415 1.71773 20.3388 2.17252 20.3875C2.87024 20.453 3.54213 20.6846 4.13194 21.0631C4.72176 21.4415 5.21234 21.9557 5.56263 22.5627C5.91293 23.1697 6.11274 23.8517 6.14534 24.5517C6.17794 25.2517 6.04239 25.9494 5.75002 26.5863C5.55869 27.0005 5.51123 27.4669 5.61518 27.9112C5.71913 28.3555 5.96852 28.7524 6.32377 29.0388C7.7864 30.252 9.44517 31.2069 11.2288 31.8625C11.4569 31.9415 11.6962 31.9833 11.9375 31.9863C12.2685 31.9855 12.5944 31.9055 12.888 31.7528C13.1816 31.6001 13.4344 31.3793 13.625 31.1088C14.026 30.5246 14.5635 30.0471 15.1908 29.7177C15.8182 29.3883 16.5165 29.2171 17.225 29.2188C17.9116 29.2196 18.5884 29.3808 19.2017 29.6894C19.815 29.998 20.3477 30.4455 20.7575 30.9963C21.0301 31.3627 21.4163 31.6287 21.8558 31.7528C22.2953 31.8769 22.7635 31.8522 23.1875 31.6825C24.8184 31.0261 26.3367 30.1189 27.6875 28.9938C28.0268 28.7132 28.2685 28.3323 28.3776 27.9058C28.4868 27.4792 28.4579 27.0291 28.295 26.62C28.0304 25.9936 27.9151 25.3142 27.958 24.6356C28.001 23.9569 28.2011 23.2976 28.5426 22.7095C28.8841 22.1214 29.3576 21.6208 29.9257 21.2471C30.4938 20.8734 31.1411 20.6369 31.8163 20.5563C32.2541 20.4957 32.6613 20.2974 32.9789 19.9899C33.2964 19.6825 33.5078 19.2819 33.5825 18.8463C33.7632 17.9079 33.8611 16.9555 33.875 16C33.8752 14.9922 33.7811 13.9865 33.5938 12.9963C33.5178 12.5702 33.3095 12.179 32.9985 11.878C32.6875 11.5771 32.2896 11.3819 31.8613 11.32ZM22.625 16C22.625 17.1125 22.2951 18.2001 21.677 19.1251C21.059 20.0501 20.1805 20.7711 19.1526 21.1968C18.1248 21.6226 16.9938 21.734 15.9026 21.5169C14.8115 21.2999 13.8092 20.7642 13.0225 19.9775C12.2359 19.1908 11.7001 18.1885 11.4831 17.0974C11.2661 16.0063 11.3775 14.8753 11.8032 13.8474C12.2289 12.8196 12.9499 11.9411 13.8749 11.323C14.8 10.7049 15.8875 10.375 17 10.375C18.4919 10.375 19.9226 10.9676 20.9775 12.0225C22.0324 13.0774 22.625 14.5082 22.625 16Z" fill="white"/>
</svg>
