<svg width="34" height="34" viewBox="0 0 34 34" fill="none" xmlns="http://www.w3.org/2000/svg">
<path d="M31.6532 18.1588C30.8689 18.1588 30.2331 17.523 30.2331 16.7387C30.2331 15.9543 30.8689 15.3185 31.6532 15.3185H33.365C32.561 7.4364 26.1686 1.18356 18.2251 0.596497V2.08665C18.2251 2.87097 17.5893 3.50678 16.805 3.50678C16.0207 3.50678 15.3849 2.87097 15.3849 2.08665V0.630434C7.55902 1.39731 1.3253 7.67125 0.620023 15.5147H2.15302C2.93734 15.5147 3.57315 16.1506 3.57315 16.9349C3.57315 17.7192 2.93734 18.355 2.15302 18.355H0.608398C1.26137 26.3248 7.62006 32.703 15.5812 33.3871V31.5868C15.5812 30.8025 16.217 30.1667 17.0013 30.1667C17.7856 30.1667 18.4215 30.8025 18.4215 31.5868V33.3871C26.4478 32.6973 32.8452 26.2198 33.409 18.1588H31.6532ZM22.7501 13.2596L18.0056 18.0042C17.7392 18.2705 17.3781 18.4202 17.0014 18.4202C16.6248 18.4202 16.2635 18.2705 15.9973 18.0042L7.73856 9.74547C7.18393 9.19093 7.18393 8.29178 7.73856 7.73715C8.29309 7.18253 9.19224 7.18253 9.74687 7.73715L17.0015 14.9917L20.742 11.2513C21.2965 10.6967 22.1956 10.6967 22.7503 11.2513C23.3047 11.8058 23.3047 12.7051 22.7501 13.2596Z" fill="white"/>
</svg>
