<svg width="32" height="32" viewBox="0 0 32 32" fill="none" xmlns="http://www.w3.org/2000/svg">
<path d="M0.85 16C0.85 24.3534 7.64596 31.15 16 31.15C24.3534 31.15 31.15 24.3534 31.15 16C31.15 7.64596 24.3534 0.85 16 0.85C7.64596 0.85 0.85 7.64596 0.85 16ZM2.64997 16C2.64997 8.63919 8.63919 2.64997 16 2.64997C23.3614 2.64997 29.35 8.63919 29.35 16C29.35 23.3616 23.3614 29.35 16 29.35C8.63919 29.35 2.64997 23.3614 2.64997 16Z" fill="#0345FF" stroke="#0345FF" stroke-width="0.3"/>
<path d="M13.3054 19.8302L13.3054 19.8302C13.9738 20.4986 15.0662 20.4699 15.6985 19.7673L21.4182 13.4124C21.4182 13.4124 21.4182 13.4124 21.4182 13.4124C21.7507 13.043 21.7206 12.474 21.3512 12.1414C20.9817 11.8088 20.4126 11.8388 20.0802 12.2081L20.0802 12.2081L14.8897 17.9754C14.6597 18.2309 14.2626 18.2414 14.0194 17.9984C14.0194 17.9984 14.0194 17.9984 14.0194 17.9984L11.9177 15.8966C11.5661 15.545 10.9962 15.545 10.6448 15.8966C10.2934 16.2482 10.2934 16.818 10.6448 17.1694L13.3054 19.8302Z" fill="#0345FF" stroke="#0345FF" stroke-width="0.3"/>
</svg>
