<svg width="32" height="27" viewBox="0 0 32 27" fill="none" xmlns="http://www.w3.org/2000/svg">
<path d="M4.10193 20.7037H28.0468C28.5422 20.7037 28.9447 20.3009 28.9447 19.8058V4.41258C28.9447 3.91744 28.5422 3.51465 28.0468 3.51465H4.10193C3.60678 3.51465 3.204 3.91744 3.204 4.41258V19.8058C3.204 20.3009 3.60704 20.7037 4.10193 20.7037ZM3.97366 4.41258C3.97366 4.34177 4.03112 4.28431 4.10193 4.28431H28.0468C28.1176 4.28431 28.175 4.34177 28.175 4.41258V19.8058C28.175 19.8766 28.1176 19.934 28.0468 19.934H4.10193C4.03112 19.934 3.97366 19.8766 3.97366 19.8058V4.41258ZM30.8753 21.3907V22.1093C30.8753 22.2997 30.7208 22.4541 30.5305 22.4541H1.61824C1.42788 22.4541 1.27344 22.2997 1.27344 22.1093V21.3907H13.4307C13.4907 21.5911 13.6744 21.7381 13.8943 21.7381H18.2547C18.4743 21.7381 18.658 21.5914 18.7183 21.3907H30.8753Z" fill="white"/>
</svg>
