<svg width="31" height="32" viewBox="0 0 31 32" fill="none" xmlns="http://www.w3.org/2000/svg">
<path d="M25.5591 9.36644L19.5533 10.1102L20.2941 6.42137C20.5227 5.26998 20.3679 4.07539 19.8533 3.02033C19.3387 1.96527 18.4926 1.10785 17.4445 0.579234C16.6611 0.192677 15.7583 0.125377 14.9263 0.391519C14.0943 0.657661 13.3981 1.23645 12.9846 2.00588L7.70425 11.958C7.42206 11.7488 7.0702 11.6562 6.7216 11.6994L1.25434 12.3765C0.891838 12.4214 0.562018 12.6085 0.337435 12.8965C0.112853 13.1846 0.0119057 13.5501 0.0568005 13.9126L2.08811 30.3144C2.13301 30.6769 2.32007 31.0067 2.60814 31.2313C2.89621 31.4559 3.2617 31.5568 3.62421 31.5119L9.09147 30.8348C9.45397 30.7899 9.78379 30.6029 10.0084 30.3148C10.233 30.0267 10.3339 29.6612 10.289 29.2987L10.2667 29.1183L12.4049 30.1913C12.6482 30.3128 12.9219 30.36 13.1919 30.327L25.4933 28.8035C25.7473 28.7722 25.9875 28.6707 26.1871 28.5104C26.3866 28.3501 26.5376 28.1374 26.623 27.8962L30.3842 17.276C30.685 16.4221 30.7844 15.5102 30.6745 14.6115L30.5022 13.2201C30.3563 12.0542 29.754 10.9938 28.8274 10.2713C27.9007 9.54889 26.7253 9.22347 25.5591 9.36644ZM7.3861 28.2705L4.65247 28.609L2.95971 14.9409L5.69334 14.6023L7.3861 28.2705ZM27.9409 14.9501C27.9987 15.4246 27.9463 15.906 27.7876 16.3569L24.31 26.1745L13.2634 27.5426L9.8599 25.8339L8.64957 16.0611L15.4188 3.29481C15.491 3.15709 15.6145 3.05332 15.7626 3.00589C15.9107 2.95847 16.0715 2.9712 16.2103 3.04134C16.7195 3.29789 17.1306 3.71428 17.3805 4.22674C17.6305 4.7392 17.7056 5.31946 17.5942 5.87866L16.4789 11.4402C16.436 11.6538 16.4444 11.8746 16.5033 12.0843C16.5623 12.2941 16.6702 12.4869 16.8182 12.6468C16.9661 12.8067 17.1499 12.9293 17.3544 13.0044C17.559 13.0795 17.7784 13.105 17.9947 13.0788L25.8976 12.1001C26.3391 12.0458 26.784 12.1689 27.1348 12.4423C27.4856 12.7158 27.7135 13.1173 27.7686 13.5587L27.9409 14.9501Z" fill="white"/>
<path d="M25.5591 9.36644L19.5533 10.1102L20.2941 6.42137C20.5227 5.26998 20.3679 4.07539 19.8533 3.02033C19.3387 1.96527 18.4926 1.10785 17.4445 0.579234C16.6611 0.192677 15.7583 0.125377 14.9263 0.391519C14.0943 0.657661 13.3981 1.23645 12.9846 2.00588L7.70425 11.958C7.42206 11.7488 7.0702 11.6562 6.7216 11.6994L1.25434 12.3765C0.891838 12.4214 0.562018 12.6085 0.337435 12.8965C0.112853 13.1846 0.0119057 13.5501 0.0568005 13.9126L2.08811 30.3144C2.13301 30.6769 2.32007 31.0067 2.60814 31.2313C2.89621 31.4559 3.2617 31.5568 3.62421 31.5119L9.09147 30.8348C9.45397 30.7899 9.78379 30.6029 10.0084 30.3148C10.233 30.0267 10.3339 29.6612 10.289 29.2987L10.2667 29.1183L12.4049 30.1913C12.6482 30.3128 12.9219 30.36 13.1919 30.327L25.4933 28.8035C25.7473 28.7722 25.9875 28.6707 26.1871 28.5104C26.3866 28.3501 26.5376 28.1374 26.623 27.8962L30.3842 17.276C30.685 16.4221 30.7844 15.5102 30.6745 14.6115L30.5022 13.2201C30.3563 12.0542 29.754 10.9938 28.8274 10.2713C27.9007 9.54889 26.7253 9.22347 25.5591 9.36644ZM7.3861 28.2705L4.65247 28.609L2.95971 14.9409L5.69334 14.6023L7.3861 28.2705ZM27.9409 14.9501C27.9987 15.4246 27.9463 15.906 27.7876 16.3569L24.31 26.1745L13.2634 27.5426L9.8599 25.8339L8.64957 16.0611L15.4188 3.29481C15.491 3.15709 15.6145 3.05332 15.7626 3.00589C15.9107 2.95847 16.0715 2.9712 16.2103 3.04134C16.7195 3.29789 17.1306 3.71428 17.3805 4.22674C17.6305 4.7392 17.7056 5.31946 17.5942 5.87866L16.4789 11.4402C16.436 11.6538 16.4444 11.8746 16.5033 12.0843C16.5623 12.2941 16.6702 12.4869 16.8182 12.6468C16.9661 12.8067 17.1499 12.9293 17.3544 13.0044C17.559 13.0795 17.7784 13.105 17.9947 13.0788L25.8976 12.1001C26.3391 12.0458 26.784 12.1689 27.1348 12.4423C27.4856 12.7158 27.7135 13.1173 27.7686 13.5587L27.9409 14.9501Z" stroke="white"/>
</svg>
