<svg width="45" height="32" viewBox="0 0 45 32" fill="none" xmlns="http://www.w3.org/2000/svg">
<path d="M39.3777 3.91211H7.05425C6.47633 3.91211 6.00781 4.38063 6.00781 4.95855V21.4637C6.00781 22.0417 6.47633 22.5102 7.05425 22.5102H39.3777C39.9556 22.5102 40.4241 22.0417 40.4241 21.4637V4.95855C40.4241 4.38063 39.9556 3.91211 39.3777 3.91211Z" fill="white"/>
<path d="M29.1952 25.7284H25.6426V24.3252H20.7886V25.7284H17.2359C16.7346 25.7284 16.3281 26.1348 16.3281 26.6362C16.3281 27.1374 16.7345 27.5439 17.2359 27.5439H29.1952C29.6965 27.5439 30.103 27.1375 30.103 26.6362C30.103 26.1349 29.6966 25.7284 29.1952 25.7284Z" fill="white"/>
</svg>
