<svg width="38" height="28" viewBox="0 0 38 28" fill="none" xmlns="http://www.w3.org/2000/svg">
<g clip-path="url(#clip0_107_1159)">
<path d="M18.8787 1.05371C18.4452 1.05371 18.0938 1.40518 18.0938 1.83871V27.0634C18.0938 27.4969 18.4452 27.8484 18.8787 27.8484C19.3123 27.8484 19.6637 27.4969 19.6637 27.0634V1.83871C19.6637 1.40518 19.3123 1.05371 18.8787 1.05371Z" fill="white"/>
<path d="M22.66 5.08838C22.2265 5.08838 21.875 5.43985 21.875 5.87338V23.029C21.875 23.4625 22.2265 23.814 22.66 23.814C23.0935 23.814 23.445 23.4625 23.445 23.029V5.87338C23.445 5.43985 23.0935 5.08838 22.66 5.08838Z" fill="white"/>
<path d="M26.4256 8.66504C25.9921 8.66504 25.6406 9.01651 25.6406 9.45004V19.4526C25.6406 19.8861 25.9921 20.2376 26.4256 20.2376C26.8592 20.2376 27.2106 19.8861 27.2106 19.4526V9.45004C27.2106 9.01646 26.8592 8.66504 26.4256 8.66504Z" fill="white"/>
<path d="M30.1912 10.5898C29.7577 10.5898 29.4062 10.9413 29.4062 11.3748V17.5265C29.4062 17.96 29.7577 18.3115 30.1912 18.3115C30.6248 18.3115 30.9762 17.96 30.9762 17.5265V11.3748C30.9762 10.9413 30.6248 10.5898 30.1912 10.5898Z" fill="white"/>
<path d="M33.9725 12.1602C33.539 12.1602 33.1875 12.5116 33.1875 12.9452V15.9568C33.1875 16.3904 33.539 16.7418 33.9725 16.7418C34.406 16.7418 34.7575 16.3904 34.7575 15.9568V12.9452C34.7575 12.5116 34.406 12.1602 33.9725 12.1602Z" fill="white"/>
<path d="M15.1131 5.08838C14.6796 5.08838 14.3281 5.43985 14.3281 5.87338V23.029C14.3281 23.4625 14.6796 23.814 15.1131 23.814C15.5467 23.814 15.8981 23.4625 15.8981 23.029V5.87338C15.8981 5.43985 15.5467 5.08838 15.1131 5.08838Z" fill="white"/>
<path d="M11.3475 8.66504C10.914 8.66504 10.5625 9.01651 10.5625 9.45004V19.4526C10.5625 19.8861 10.914 20.2376 11.3475 20.2376C11.781 20.2376 12.1325 19.8861 12.1325 19.4526V9.45004C12.1325 9.01646 11.781 8.66504 11.3475 8.66504Z" fill="white"/>
<path d="M7.57406 10.5898C7.14053 10.5898 6.78906 10.9413 6.78906 11.3748V17.5265C6.78906 17.96 7.14053 18.3115 7.57406 18.3115C8.00759 18.3115 8.35906 17.96 8.35906 17.5265V11.3748C8.35906 10.9413 8.00759 10.5898 7.57406 10.5898Z" fill="white"/>
<path d="M3.80062 12.1602C3.3671 12.1602 3.01562 12.5116 3.01562 12.9452V15.9568C3.01562 16.3904 3.3671 16.7418 3.80062 16.7418C4.23415 16.7418 4.58562 16.3904 4.58562 15.9568V12.9452C4.58562 12.5116 4.23415 12.1602 3.80062 12.1602Z" fill="white"/>
</g>
<defs>
<clipPath id="clip0_107_1159">
<rect width="37.3211" height="26.7946" fill="white" transform="translate(0.101562 0.575684)"/>
</clipPath>
</defs>
</svg>
