<svg width="43" height="33" viewBox="0 0 43 33" fill="none" xmlns="http://www.w3.org/2000/svg">
<g clip-path="url(#clip0_107_1172)">
<path d="M25.4438 0.823242H5.8219C5.25667 0.823242 4.79688 1.28304 4.79688 1.84827V30.4026C4.79688 30.9678 5.25667 31.4276 5.8219 31.4276H25.4438C26.0091 31.4276 26.4689 30.9678 26.4689 30.4026V1.84827C26.4689 1.28304 26.0091 0.823242 25.4438 0.823242ZM15.0228 2.16544H16.2432C16.3237 2.16544 16.3896 2.23104 16.3896 2.31187C16.3896 2.3927 16.3237 2.45831 16.2432 2.45831H15.0228C14.942 2.45831 14.8764 2.3927 14.8764 2.31187C14.8764 2.23104 14.9417 2.16544 15.0228 2.16544ZM15.6329 30.6711C15.2015 30.6711 14.8518 30.3214 14.8518 29.8901C14.8518 29.4587 15.2015 29.109 15.6329 29.109C16.0643 29.109 16.4139 29.4587 16.4139 29.8901C16.4139 30.3214 16.0643 30.6711 15.6329 30.6711ZM25.151 28.2793H6.07113V3.67867H25.151V28.2793Z" fill="white"/>
</g>
<g clip-path="url(#clip1_107_1172)">
<path d="M30.347 30.2525C30.347 30.3749 30.2743 30.4804 30.1698 30.5281H30.0442H29.9186C29.814 30.4804 29.7413 30.3749 29.7413 30.2525C29.7413 30.0852 29.8769 29.9496 30.0442 29.9496C30.2114 29.9496 30.347 30.0852 30.347 30.2525ZM29.7306 9.27524C29.7254 9.23868 29.7227 9.2013 29.7227 9.16327C29.7227 9.12524 29.7254 9.08785 29.7306 9.05129H30.3579C30.3631 9.08787 30.3658 9.12525 30.3658 9.16327C30.3658 9.20127 30.3631 9.23866 30.3579 9.27524H29.7306ZM36.4226 28.1206H23.6324V11.1086H36.4226V28.1206ZM37.5467 7.12477H22.5417C21.6123 7.12477 20.8577 7.87939 20.8577 8.80875V30.6444C20.8577 31.5737 21.6123 32.3284 22.5417 32.3284H37.5467C38.476 32.3284 39.2306 31.5737 39.2306 30.6444V8.80875C39.2306 7.87939 38.476 7.12477 37.5467 7.12477Z" fill="white" stroke="#171D3A" stroke-width="1.80026"/>
<rect x="23.75" y="10.7251" width="5.40077" height="18.0026" fill="#171D3A"/>
</g>
<defs>
<clipPath id="clip0_107_1172">
<rect width="30.6044" height="30.6044" fill="white" transform="translate(0.335938 0.823242)"/>
</clipPath>
<clipPath id="clip1_107_1172">
<rect width="25.1941" height="29.0701" fill="white" transform="translate(16.8125 3.52783)"/>
</clipPath>
</defs>
</svg>
