<svg width="45" height="34" viewBox="0 0 45 34" fill="none" xmlns="http://www.w3.org/2000/svg">
<g clip-path="url(#clip0_107_1126)">
<path d="M18.5761 7.36426H8.88616C7.44991 7.36426 6.28125 8.52762 6.28125 9.95734V28.423C6.28125 29.8528 7.4495 31.0161 8.88616 31.0161H18.5761C20.0062 31.0161 21.1692 29.8528 21.1692 28.423V9.95734C21.1692 8.52762 20.0058 7.36426 18.5761 7.36426ZM20.3533 28.4234C20.3533 29.4037 19.5559 30.2007 18.5761 30.2007H8.88616C7.89984 30.2007 7.09707 29.4032 7.09707 28.4234V9.95734C7.09707 8.97714 7.89984 8.18008 8.88616 8.18008H18.5761C19.5559 8.18008 20.3533 8.97754 20.3533 9.95734V28.4234Z" fill="white"/>
<path d="M15.4705 28.0039H12.0017C11.7761 28.0039 11.5938 28.1867 11.5938 28.4118C11.5938 28.637 11.7761 28.8197 12.0017 28.8197H15.4705C15.6961 28.8197 15.8784 28.637 15.8784 28.4118C15.8784 28.1867 15.6957 28.0039 15.4705 28.0039Z" fill="white"/>
<rect x="19.3203" y="7.06885" width="7.45893" height="23.3092" fill="#171D3A"/>
</g>
<g clip-path="url(#clip1_107_1126)">
<path d="M34.2435 1.20417H22.1311C19.858 1.20417 18.003 3.04504 18.003 5.31753V28.3996C18.003 30.672 19.8574 32.513 22.1311 32.513H34.2435C36.5129 32.513 38.3569 30.6683 38.3569 28.3996V5.31753C38.3569 3.04878 36.5123 1.20417 34.2435 1.20417ZM35.5931 28.4002C35.5931 29.1437 34.9868 29.7497 34.2435 29.7497H22.1311C21.3744 29.7497 20.7668 29.1379 20.7668 28.4002V5.31753C20.7668 4.57943 21.3742 3.96794 22.1311 3.96794H34.2435C34.9867 3.96794 35.5931 4.57437 35.5931 5.31753V28.4002Z" fill="white" stroke="#171D3A" stroke-width="1.74399"/>
<path d="M30.3616 27.876H26.0255C25.7435 27.876 25.5156 28.1044 25.5156 28.3859C25.5156 28.6673 25.7435 28.8958 26.0255 28.8958H30.3616C30.6436 28.8958 30.8715 28.6673 30.8715 28.3859C30.8715 28.1044 30.6431 27.876 30.3616 27.876Z" fill="white"/>
</g>
<defs>
<clipPath id="clip0_107_1126">
<rect width="26.1063" height="26.1063" fill="white" transform="translate(0.671875 6.13672)"/>
</clipPath>
<clipPath id="clip1_107_1126">
<rect width="32.6328" height="32.6328" fill="white" transform="translate(11.8594 0.541992)"/>
</clipPath>
</defs>
</svg>
