<svg width="44" height="37" viewBox="0 0 44 37" fill="none" xmlns="http://www.w3.org/2000/svg">
<path d="M5.37348 28.455H38.6938C39.3832 28.455 39.9433 27.8945 39.9433 27.2055V5.78516C39.9433 5.09614 39.3832 4.53564 38.6938 4.53564H5.37348C4.68446 4.53564 4.12396 5.09614 4.12396 5.78516V27.2055C4.12396 27.8945 4.68482 28.455 5.37348 28.455ZM5.19498 5.78516C5.19498 5.68663 5.27495 5.60666 5.37348 5.60666H38.6938C38.7923 5.60666 38.8723 5.68663 38.8723 5.78516V27.2055C38.8723 27.304 38.7923 27.384 38.6938 27.384H5.37348C5.27495 27.384 5.19498 27.304 5.19498 27.2055V5.78516ZM42.6298 29.411V30.411C42.6298 30.6759 42.4149 30.8908 42.15 30.8908H1.91731C1.65242 30.8908 1.4375 30.6759 1.4375 30.411V29.411H18.3549C18.4384 29.6898 18.694 29.8944 19 29.8944H25.0677C25.3732 29.8944 25.6289 29.6902 25.7128 29.411H42.6298Z" fill="white"/>
</svg>
