<svg width="34" height="35" viewBox="0 0 34 35" fill="none" xmlns="http://www.w3.org/2000/svg">
<circle cx="16.7079" cy="17.5243" r="16.2563" stroke="white" stroke-width="0.903129"/>
<g clip-path="url(#clip0_107_1140)">
<path d="M18.6936 10.6479C18.723 10.6479 18.7525 10.6479 18.7836 10.6479C18.8557 11.5396 18.5154 12.2059 18.1018 12.6883C17.6959 13.1675 17.1401 13.6322 16.2412 13.5617C16.1813 12.6828 16.5222 12.066 16.9353 11.5846C17.3184 11.136 18.0207 10.7368 18.6936 10.6479Z" fill="white"/>
<path d="M21.4174 19.9292C21.4174 19.9381 21.4174 19.9459 21.4174 19.9542C21.1648 20.7193 20.8045 21.375 20.3647 21.9835C19.9633 22.5359 19.4714 23.2794 18.5931 23.2794C17.8341 23.2794 17.3299 22.7913 16.5521 22.778C15.7293 22.7647 15.2768 23.1861 14.5245 23.2921C14.4384 23.2921 14.3524 23.2921 14.268 23.2921C13.7155 23.2122 13.2697 22.7747 12.9449 22.3805C11.9872 21.2156 11.2471 19.711 11.1094 17.7856C11.1094 17.5968 11.1094 17.4086 11.1094 17.2198C11.1677 15.8418 11.8373 14.7214 12.7273 14.1784C13.197 13.8896 13.8427 13.6437 14.5617 13.7536C14.8698 13.8014 15.1846 13.9069 15.4606 14.0112C15.7221 14.1117 16.0491 14.29 16.3589 14.2805C16.5688 14.2744 16.7775 14.165 16.9891 14.0879C17.6087 13.8641 18.2161 13.6076 19.0167 13.7281C19.9789 13.8735 20.6618 14.3011 21.0837 14.9606C20.2698 15.4787 19.6263 16.2593 19.7362 17.5923C19.8339 18.8033 20.538 19.5117 21.4174 19.9292Z" fill="white"/>
</g>
<defs>
<clipPath id="clip0_107_1140">
<rect width="12.6438" height="12.6438" fill="white" transform="translate(9.9375 10.6484)"/>
</clipPath>
</defs>
</svg>
