<svg width="186" height="56" viewBox="0 0 186 56" fill="none" xmlns="http://www.w3.org/2000/svg">
<path d="M159.683 3.77638C146.255 2.79527 134.576 12.8566 133.597 26.2489C132.619 39.6412 142.711 51.2932 156.139 52.2743C169.567 53.2554 181.246 43.1941 182.225 29.8018C183.203 16.4095 173.111 4.75749 159.683 3.77638Z" stroke="url(#paint0_linear_107_1194)" stroke-width="5.56679"/>
<path d="M2.53818 15.6455H10.617C12.0615 15.6455 13.3409 15.9447 14.4552 16.5431C15.5902 17.1416 16.4672 17.9773 17.0863 19.0504C17.7053 20.1028 18.0149 21.2996 18.0149 22.641C18.0149 24.0648 17.5609 25.3339 16.6529 26.4482C15.7656 27.5419 14.6409 28.3364 13.279 28.8316L13.248 29.0483L19.1911 37.5605V37.8081H14.3933L8.66694 29.4817H6.71688V37.8081H2.53818V15.6455ZM10.586 25.6434C11.5353 25.6434 12.3091 25.3545 12.9076 24.7767C13.506 24.1989 13.8052 23.4664 13.8052 22.5791C13.8052 21.733 13.5163 21.0107 12.9385 20.4123C12.3813 19.8139 11.6178 19.5147 10.648 19.5147H6.71688V25.6434H10.586ZM28.0754 38.3034C26.5071 38.3034 25.0936 37.9422 23.8348 37.22C22.576 36.4977 21.5855 35.5072 20.8633 34.2485C20.1617 32.9691 19.8109 31.5349 19.8109 29.946C19.8109 28.4396 20.1617 27.0467 20.8633 25.7672C21.5649 24.4672 22.5348 23.4354 23.7729 22.6719C25.011 21.9084 26.3936 21.5266 27.9207 21.5266C29.5509 21.5266 30.9541 21.8774 32.1303 22.5791C33.3065 23.2807 34.1939 24.2402 34.7923 25.4577C35.4114 26.6752 35.7209 28.0268 35.7209 29.5126C35.7209 29.9872 35.69 30.4412 35.628 30.8746H23.7729C23.9793 32.1333 24.4745 33.0929 25.2587 33.7532C26.0635 34.3929 27.023 34.7128 28.1373 34.7128C29.0659 34.7128 29.8604 34.5167 30.5207 34.1247C31.2017 33.7119 31.7382 33.1651 32.1303 32.4841L35.4114 34.0937C33.8018 36.9001 31.3565 38.3034 28.0754 38.3034ZM31.8208 27.9959C31.7795 27.5006 31.5938 27.0157 31.2636 26.5411C30.9541 26.0458 30.5104 25.6434 29.9326 25.3339C29.3755 25.0037 28.7151 24.8386 27.9516 24.8386C26.9817 24.8386 26.146 25.1275 25.4444 25.7053C24.7634 26.2625 24.2682 27.026 23.9586 27.9959H31.8208Z" fill="#FF3131"/>
<path d="M150.047 39.9415C154.988 39.9415 157.869 37.5695 157.869 33.7575C157.869 31.1597 156.315 29.5501 153.944 29.0136C155.977 28.3077 157.276 26.8958 157.276 24.6368C157.276 23.0555 156.626 21.7001 155.412 20.7118C154.198 19.7235 152.475 19.1588 150.244 19.1588C147.957 19.1588 146.122 19.8365 144.879 20.966C143.609 22.1237 142.903 23.7332 142.79 25.5687H146.828C147.054 23.6485 148.24 22.519 150.16 22.519C152.052 22.519 152.955 23.592 152.955 25.0321C152.955 26.7546 152.023 27.7147 149.877 27.7147H148.409V30.7643H149.99C152.165 30.7643 153.238 31.7244 153.238 33.6728C153.238 35.48 152.165 36.5812 149.877 36.5812C147.421 36.5812 146.432 35.1694 146.235 33.221H142.112C142.31 37.3154 144.879 39.9415 150.047 39.9415ZM163.366 23.9591V39.6309H167.941V19.4412H163.931L159.272 22.7449V26.6417L163.366 23.9591Z" fill="#1649FF"/>
<path d="M40.6163 15.6455H46.0022L51.8833 31.215H52.131L58.0121 15.6455H63.4289V37.8081H59.2812V26.8816L59.5288 23.1981H59.2812L53.6477 37.8081H50.3976L44.7331 23.1981H44.4855L44.7331 26.8816V37.8081H40.6163V15.6455ZM74.8628 38.3034C73.2326 38.3034 71.7778 37.9422 70.4984 37.22C69.219 36.4771 68.2182 35.4763 67.4959 34.2175C66.7943 32.9381 66.4435 31.5039 66.4435 29.915C66.4435 28.3467 66.7943 26.9228 67.4959 25.6434C68.2182 24.364 69.219 23.3632 70.4984 22.641C71.7778 21.8981 73.2326 21.5266 74.8628 21.5266C76.4724 21.5266 77.9169 21.8981 79.1963 22.641C80.4757 23.3632 81.4662 24.364 82.1678 25.6434C82.89 26.9228 83.2512 28.3467 83.2512 29.915C83.2512 31.5039 82.89 32.9381 82.1678 34.2175C81.4662 35.4763 80.4757 36.4771 79.1963 37.22C77.9169 37.9422 76.4724 38.3034 74.8628 38.3034ZM74.8628 34.558C75.647 34.558 76.3692 34.3723 77.0295 34.0008C77.6899 33.6294 78.2161 33.0929 78.6082 32.3913C79.0002 31.6897 79.1963 30.8642 79.1963 29.915C79.1963 28.9864 79.0002 28.1713 78.6082 27.4697C78.2161 26.7681 77.6899 26.2315 77.0295 25.8601C76.3692 25.4887 75.647 25.3029 74.8628 25.3029C74.0787 25.3029 73.3564 25.4887 72.6961 25.8601C72.0357 26.2315 71.4992 26.7681 71.0865 27.4697C70.6944 28.1713 70.4984 28.9864 70.4984 29.915C70.4984 30.8436 70.6944 31.669 71.0865 32.3913C71.4992 33.0929 72.0357 33.6294 72.6961 34.0008C73.3564 34.3723 74.0787 34.558 74.8628 34.558ZM94.3743 38.3034C93.3013 38.3034 92.3417 38.0764 91.4956 37.6224C90.6702 37.1684 90.0512 36.6009 89.6384 35.92H89.3908V37.8081H85.5836V15.6455H89.6384V21.7124L89.3908 23.941H89.6384C90.0718 23.26 90.7012 22.6925 91.5266 22.2386C92.352 21.7639 93.3013 21.5266 94.3743 21.5266C95.7982 21.5266 97.0879 21.8878 98.2435 22.61C99.4197 23.3116 100.338 24.3021 100.998 25.5815C101.659 26.8609 101.989 28.3054 101.989 29.915C101.989 31.5452 101.659 33 100.998 34.2794C100.338 35.5382 99.4197 36.5287 98.2435 37.2509C97.0879 37.9526 95.7982 38.3034 94.3743 38.3034ZM93.6624 34.558C94.4259 34.558 95.1378 34.362 95.7982 33.9699C96.4585 33.5778 96.9847 33.031 97.3768 32.3294C97.7689 31.6278 97.9649 30.823 97.9649 29.915C97.9649 29.007 97.7689 28.2022 97.3768 27.5006C96.9847 26.799 96.4585 26.2625 95.7982 25.8911C95.1378 25.499 94.4259 25.3029 93.6624 25.3029C92.9195 25.3029 92.2179 25.499 91.5576 25.8911C90.8972 26.2625 90.371 26.799 89.9789 27.5006C89.5869 28.2022 89.3908 29.007 89.3908 29.915C89.3908 30.823 89.5869 31.6278 89.9789 32.3294C90.371 33.031 90.8972 33.5778 91.5576 33.9699C92.2179 34.362 92.9195 34.558 93.6624 34.558ZM106.631 20.2885C105.909 20.2885 105.29 20.0306 104.774 19.5147C104.258 18.9988 104 18.3797 104 17.6575C104 16.9352 104.258 16.3265 104.774 15.8312C105.29 15.3153 105.909 15.0574 106.631 15.0574C107.353 15.0574 107.962 15.3153 108.457 15.8312C108.973 16.3265 109.231 16.9352 109.231 17.6575C109.231 18.3797 108.973 18.9988 108.457 19.5147C107.962 20.0306 107.353 20.2885 106.631 20.2885ZM104.588 22.0219H108.643V37.8081H104.588V22.0219ZM112.276 15.6455H116.331V37.8081H112.276V15.6455ZM126.944 38.3034C125.376 38.3034 123.962 37.9422 122.704 37.22C121.445 36.4977 120.454 35.5072 119.732 34.2485C119.031 32.9691 118.68 31.5349 118.68 29.946C118.68 28.4396 119.031 27.0467 119.732 25.7672C120.434 24.4672 121.404 23.4354 122.642 22.6719C123.88 21.9084 125.262 21.5266 126.789 21.5266C128.42 21.5266 129.823 21.8774 130.999 22.5791C132.175 23.2807 133.063 24.2402 133.661 25.4577C134.28 26.6752 134.59 28.0268 134.59 29.5126C134.59 29.9872 134.559 30.4412 134.497 30.8746H122.642C122.848 32.1333 123.343 33.0929 124.128 33.7532C124.932 34.3929 125.892 34.7128 127.006 34.7128C127.935 34.7128 128.729 34.5167 129.39 34.1247C130.071 33.7119 130.607 33.1651 130.999 32.4841L134.28 34.0937C132.671 36.9001 130.225 38.3034 126.944 38.3034ZM130.69 27.9959C130.648 27.5006 130.463 27.0157 130.132 26.5411C129.823 26.0458 129.379 25.6434 128.801 25.3339C128.244 25.0037 127.584 24.8386 126.82 24.8386C125.851 24.8386 125.015 25.1275 124.313 25.7053C123.632 26.2625 123.137 27.026 122.827 27.9959H130.69Z" fill="#164AFF"/>
<path d="M56.9766 49.5421C56.9766 48.2967 57.9521 47.2381 59.239 47.2381C60.0692 47.2381 60.5881 47.591 61.0032 48.0269L60.5881 48.4627C60.2353 48.0891 59.8409 47.8193 59.239 47.8193C58.3465 47.8193 57.6615 48.5665 57.6615 49.5421C57.6615 50.4968 58.3672 51.2441 59.2805 51.2441C59.8409 51.2441 60.256 50.9535 60.6089 50.5799L61.0448 50.9742C60.6089 51.4724 60.0692 51.8252 59.239 51.8252C57.9521 51.846 56.9766 50.8082 56.9766 49.5421ZM61.8335 49.5421C61.8335 48.2552 62.726 47.2381 63.9506 47.2381C65.2583 47.2381 66.0055 48.2759 66.0055 49.5628V49.7911H62.5184C62.6222 50.7252 63.2864 51.2648 64.0752 51.2648C64.6771 51.2648 65.113 51.0157 65.4658 50.6421L65.8809 51.0157C65.4451 51.5139 64.9054 51.846 64.0752 51.846C62.8298 51.846 61.8335 50.912 61.8335 49.5421ZM65.3413 49.293C65.2583 48.4835 64.8016 47.8193 63.9299 47.8193C63.1826 47.8193 62.6015 48.442 62.4977 49.293H65.3413ZM67.1471 47.3419H67.8113V48.2344C68.1641 47.7155 68.683 47.2589 69.4925 47.2589C70.5511 47.2589 71.5889 48.0891 71.5889 49.5628C71.5889 50.995 70.5511 51.846 69.4925 51.846C68.683 51.846 68.1434 51.4101 67.8113 50.912V53.1121H67.1471V47.3419ZM70.9247 49.5421C70.9247 48.5042 70.219 47.8401 69.368 47.8401C68.5585 47.8401 67.7697 48.525 67.7697 49.5421C67.7697 50.5591 68.5377 51.2441 69.368 51.2441C70.219 51.2441 70.9247 50.6214 70.9247 49.5421ZM72.7927 47.3419H74.9306C75.8024 47.3419 76.3628 47.7778 76.3628 48.442C76.3628 49.0232 75.9892 49.293 75.6363 49.459C76.1552 49.6043 76.6118 49.9364 76.6118 50.5383C76.6118 51.2856 75.9892 51.7422 75.0136 51.7422H72.8135V47.3419H72.7927ZM74.8061 49.2307C75.325 49.2307 75.6986 48.9816 75.6986 48.525C75.6986 48.1514 75.3872 47.9023 74.8268 47.9023H73.4569V49.2307H74.8061ZM74.9098 51.1818C75.5325 51.1818 75.9269 50.8912 75.9269 50.4346C75.9269 50.0194 75.5533 49.7496 74.8268 49.7496H73.4569V51.161H74.9098V51.1818ZM77.7949 47.3419H78.4591V50.8289L81.0744 47.3419H81.7178V51.7422H81.0537V48.2552L78.4176 51.7422H77.7949V47.3419ZM82.8802 49.5421C82.8802 48.2967 83.8557 47.2381 85.1426 47.2381C85.9729 47.2381 86.4918 47.591 86.9069 48.0269L86.4918 48.4627C86.1389 48.0891 85.7445 47.8193 85.1426 47.8193C84.2501 47.8193 83.5651 48.5665 83.5651 49.5421C83.5651 50.4968 84.2709 51.2441 85.1841 51.2441C85.7445 51.2441 86.1597 50.9535 86.5125 50.5799L86.9484 50.9742C86.5125 51.4724 85.9729 51.8252 85.1426 51.8252C83.8557 51.846 82.8802 50.8082 82.8802 49.5421ZM88.007 47.3419H88.6711V49.2307H91.2034V47.3419H91.8676V51.7422H91.2034V49.8119H88.6711V51.7422H88.007V47.3419ZM93.3205 47.3419H93.9847V49.0024H95.1678C96.1226 49.0024 96.9113 49.3968 96.9113 50.3308C96.9113 51.2025 96.2471 51.763 95.2508 51.763H93.3413V47.3419H93.3205ZM95.1678 51.161C95.832 51.161 96.2264 50.8704 96.2264 50.3308C96.2264 49.8119 95.8113 49.5628 95.1471 49.5628H93.9847V51.161H95.1678ZM97.6793 47.3419H98.3435V51.7422H97.6793V47.3419ZM99.7964 47.3419H100.461V50.8289L103.076 47.3419H103.719V51.7422H103.055V48.2552L100.44 51.7422H99.8172V47.3419H99.7964ZM100.544 45.6814L101 45.5776C101.104 45.9512 101.332 46.1796 101.747 46.1796C102.163 46.1796 102.391 45.9512 102.495 45.5776L102.951 45.6814C102.848 46.2833 102.391 46.7192 101.747 46.7192C101.104 46.7192 100.627 46.2833 100.544 45.6814ZM111.524 51.7422H107.725V47.3419H108.389V51.161H110.859V47.3419H111.524V51.161H112.188L112.084 52.8423H111.544V51.7422H111.524ZM112.79 49.5421C112.79 48.2552 113.682 47.2381 114.907 47.2381C116.215 47.2381 116.962 48.2759 116.962 49.5628V49.7911H113.475C113.578 50.7252 114.243 51.2648 115.031 51.2648C115.633 51.2648 116.069 51.0157 116.422 50.6421L116.837 51.0157C116.401 51.5139 115.862 51.846 115.031 51.846C113.786 51.846 112.79 50.912 112.79 49.5421ZM116.298 49.293C116.215 48.4835 115.758 47.8193 114.886 47.8193C114.139 47.8193 113.558 48.442 113.454 49.293H116.298ZM118.103 47.3419H118.768V49.2307H121.3V47.3419H121.964V51.7422H121.3V49.8119H118.768V51.7422H118.103V47.3419ZM124.475 47.9231H122.898V47.3419H126.717V47.9231H125.14V51.7422H124.475V47.9231ZM127.672 47.3419H128.336V48.2344C128.689 47.7155 129.208 47.2589 130.017 47.2589C131.076 47.2589 132.114 48.0891 132.114 49.5628C132.114 50.995 131.076 51.846 130.017 51.846C129.208 51.846 128.668 51.4101 128.336 50.912V53.1121H127.672V47.3419ZM131.449 49.5421C131.449 48.5042 130.744 47.8401 129.893 47.8401C129.083 47.8401 128.295 48.525 128.295 49.5421C128.295 50.5591 129.063 51.2441 129.893 51.2441C130.744 51.2441 131.449 50.6214 131.449 49.5421Z" fill="black"/>
<defs>
<linearGradient id="paint0_linear_107_1194" x1="143.831" y1="27.0188" x2="174.438" y2="29.2551" gradientUnits="userSpaceOnUse">
<stop offset="0.171875" stop-color="#E2EEFF" stop-opacity="0.42"/>
<stop offset="1" stop-color="#468FFE"/>
</linearGradient>
</defs>
</svg>
