<svg width="100" height="18" viewBox="0 0 100 18" fill="none" xmlns="http://www.w3.org/2000/svg">
<g clip-path="url(#clip0_107_1675)">
<path d="M16.9055 8.55653C17.3462 8.12715 17.5017 7.49695 17.3115 6.91217C17.1216 6.32715 16.6254 5.90877 16.0165 5.82028L12.2567 5.27399C12.0659 5.24613 11.901 5.12633 11.8156 4.9535L10.1342 1.5463C9.86196 0.994844 9.31071 0.652283 8.69562 0.652283C8.08054 0.652283 7.52929 0.994844 7.25704 1.5463C7.25704 1.54634 5.57562 4.95347 5.57562 4.95347C5.49029 5.12637 5.32538 5.24617 5.13482 5.27395L1.37484 5.82025C0.765868 5.90877 0.269638 6.32715 0.0798621 6.91186C-0.110457 7.49695 0.0450795 8.12718 0.485671 8.55643L3.20639 11.2087C3.3444 11.3432 3.40738 11.5369 3.37487 11.7267L2.73248 15.4717C2.62867 16.0781 2.8732 16.6792 3.37066 17.0406C3.86821 17.4021 4.51563 17.4489 5.06033 17.1628L8.42317 15.3947C8.59376 15.3051 8.79746 15.3051 8.96787 15.3946L12.331 17.1628C12.8757 17.449 13.5231 17.4021 14.0207 17.0406C14.5181 16.6792 14.7626 16.0781 14.6588 15.4717L14.0164 11.7269C13.9839 11.5369 14.0468 11.3432 14.185 11.2086L16.9055 8.55653Z" fill="#FFCF54"/>
</g>
<g clip-path="url(#clip1_107_1675)">
<path d="M37.5617 8.55653C38.0025 8.12715 38.158 7.49695 37.9678 6.91217C37.7779 6.32715 37.2817 5.90877 36.6727 5.82028L32.913 5.27399C32.7221 5.24613 32.5572 5.12633 32.4719 4.9535L30.7905 1.5463C30.5182 0.994844 29.967 0.652283 29.3519 0.652283C28.7368 0.652283 28.1855 0.994844 27.9133 1.5463C27.9133 1.54634 26.2319 4.95347 26.2319 4.95347C26.1465 5.12637 25.9816 5.24617 25.7911 5.27395L22.0311 5.82025C21.4221 5.90877 20.9259 6.32715 20.7361 6.91186C20.5458 7.49695 20.7013 8.12718 21.1419 8.55643L23.8626 11.2087C24.0007 11.3432 24.0636 11.5369 24.0311 11.7267L23.3887 15.4717C23.2849 16.0781 23.5295 16.6792 24.0269 17.0406C24.5245 17.4021 25.1719 17.4489 25.7166 17.1628L29.0794 15.3947C29.25 15.3051 29.4537 15.3051 29.6241 15.3946L32.9872 17.1628C33.5319 17.449 34.1794 17.4021 34.6769 17.0406C35.1743 16.6792 35.4189 16.0781 35.3151 15.4717L34.6727 11.7269C34.6402 11.5369 34.7031 11.3432 34.8412 11.2086L37.5617 8.55653Z" fill="#FFCF54"/>
</g>
<g clip-path="url(#clip2_107_1675)">
<path d="M58.2102 8.55653C58.6509 8.12715 58.8064 7.49695 58.6162 6.91217C58.4263 6.32715 57.9301 5.90877 57.3212 5.82028L53.5614 5.27399C53.3706 5.24613 53.2056 5.12633 53.1203 4.9535L51.4389 1.5463C51.1667 0.994844 50.6154 0.652283 50.0003 0.652283C49.3852 0.652283 48.834 0.994844 48.5617 1.5463C48.5617 1.54634 46.8803 4.95347 46.8803 4.95347C46.795 5.12637 46.6301 5.24617 46.4395 5.27395L42.6795 5.82025C42.0706 5.90877 41.5743 6.32715 41.3845 6.91186C41.1942 7.49695 41.3498 8.12718 41.7904 8.55643L44.5111 11.2087C44.6491 11.3432 44.7121 11.5369 44.6796 11.7267L44.0372 15.4717C43.9334 16.0781 44.1779 16.6792 44.6753 17.0406C45.1729 17.4021 45.8203 17.4489 46.365 17.1628L49.7279 15.3947C49.8984 15.3051 50.1021 15.3051 50.2726 15.3946L53.6357 17.1628C54.1804 17.449 54.8278 17.4021 55.3253 17.0406C55.8228 16.6792 56.0673 16.0781 55.9635 15.4717L55.3211 11.7269C55.2886 11.5369 55.3515 11.3432 55.4896 11.2086L58.2102 8.55653Z" fill="#FFCF54"/>
</g>
<g clip-path="url(#clip3_107_1675)">
<path d="M78.8586 8.55653C79.2993 8.12715 79.4549 7.49695 79.2646 6.91217C79.0748 6.32715 78.5785 5.90877 77.9696 5.82028L74.2099 5.27399C74.019 5.24613 73.8541 5.12633 73.7688 4.9535L72.0873 1.5463C71.8151 0.994844 71.2638 0.652283 70.6487 0.652283C70.0337 0.652283 69.4824 0.994844 69.2102 1.5463C69.2102 1.54634 67.5287 4.95347 67.5287 4.95347C67.4434 5.12637 67.2785 5.24617 67.0879 5.27395L63.328 5.82025C62.719 5.90877 62.2228 6.32715 62.033 6.91186C61.8427 7.49695 61.9982 8.12718 62.4388 8.55643L65.1595 11.2087C65.2975 11.3432 65.3605 11.5369 65.328 11.7267L64.6856 15.4717C64.5818 16.0781 64.8263 16.6792 65.3238 17.0406C65.8213 17.4021 66.4688 17.4489 67.0135 17.1628L70.3763 15.3947C70.5469 15.3051 70.7506 15.3051 70.921 15.3946L74.2841 17.1628C74.8288 17.449 75.4762 17.4021 75.9738 17.0406C76.4712 16.6792 76.7158 16.0781 76.612 15.4717L75.9695 11.7269C75.937 11.5369 76 11.3432 76.1381 11.2086L78.8586 8.55653Z" fill="#FFCF54"/>
</g>
<g clip-path="url(#clip4_107_1675)">
<path d="M99.5149 8.55653C99.9556 8.12715 100.111 7.49695 99.9209 6.91217C99.731 6.32715 99.2348 5.90877 98.6259 5.82028L94.8661 5.27399C94.6752 5.24613 94.5103 5.12633 94.425 4.9535L92.7436 1.5463C92.4713 0.994844 91.9201 0.652283 91.305 0.652283C90.6899 0.652283 90.1387 0.994844 89.8664 1.5463C89.8664 1.54634 88.185 4.95347 88.185 4.95347C88.0997 5.12637 87.9348 5.24617 87.7442 5.27395L83.9842 5.82025C83.3752 5.90877 82.879 6.32715 82.6892 6.91186C82.4989 7.49695 82.6545 8.12718 83.095 8.55643L85.8158 11.2087C85.9538 11.3432 86.0168 11.5369 85.9842 11.7267L85.3419 15.4717C85.238 16.0781 85.4826 16.6792 85.98 17.0406C86.4776 17.4021 87.125 17.4489 87.6697 17.1628L91.0325 15.3947C91.2031 15.3051 91.4068 15.3051 91.5772 15.3946L94.9404 17.1628C95.4851 17.449 96.1325 17.4021 96.63 17.0406C97.1275 16.6792 97.372 16.0781 97.2682 15.4717L96.6258 11.7269C96.5933 11.5369 96.6562 11.3432 96.7943 11.2086L99.5149 8.55653Z" fill="#FFCF54"/>
</g>
<defs>
<clipPath id="clip0_107_1675">
<rect width="17.3913" height="17.3913" fill="white" transform="translate(0 0.304871)"/>
</clipPath>
<clipPath id="clip1_107_1675">
<rect width="17.3913" height="17.3913" fill="white" transform="translate(20.6562 0.304871)"/>
</clipPath>
<clipPath id="clip2_107_1675">
<rect width="17.3913" height="17.3913" fill="white" transform="translate(41.3047 0.304871)"/>
</clipPath>
<clipPath id="clip3_107_1675">
<rect width="17.3913" height="17.3913" fill="white" transform="translate(61.9531 0.304871)"/>
</clipPath>
<clipPath id="clip4_107_1675">
<rect width="17.3913" height="17.3913" fill="white" transform="translate(82.6094 0.304871)"/>
</clipPath>
</defs>
</svg>
