<svg width="140" height="25" viewBox="0 0 140 25" fill="none" xmlns="http://www.w3.org/2000/svg">
<g clip-path="url(#clip0_107_1718)">
<path d="M23.6675 11.5522C24.2845 10.9511 24.5023 10.0688 24.236 9.25012C23.9701 8.4311 23.2754 7.84538 22.4229 7.7215L17.1593 6.95669C16.8921 6.91769 16.6612 6.74997 16.5418 6.50801L14.1878 1.73797C13.8067 0.965926 13.0349 0.486343 12.1738 0.486343C11.3127 0.486343 10.5409 0.965926 10.1598 1.73797C10.1598 1.73801 7.80581 6.50797 7.80581 6.50797C7.68635 6.75002 7.45548 6.91774 7.1887 6.95664L1.92476 7.72145C1.07221 7.84538 0.377491 8.4311 0.111806 9.24969C-0.154639 10.0688 0.0631109 10.9511 0.679934 11.5521L4.48892 15.2653C4.68213 15.4535 4.77029 15.7247 4.72478 15.9904L3.82544 21.2334C3.68012 22.0823 4.02246 22.9239 4.71889 23.4298C5.41546 23.9359 6.32184 24.0015 7.08442 23.6009L11.7924 21.1256C12.0312 21.0001 12.3164 21.0002 12.5549 21.1255L17.2633 23.6009C18.0258 24.0015 18.9322 23.9359 19.6288 23.4298C20.3252 22.9239 20.6676 22.0823 20.5222 21.2334L19.6228 15.9907C19.5773 15.7247 19.6655 15.4535 19.8588 15.2651L23.6675 11.5522Z" fill="#0345FF"/>
</g>
<g clip-path="url(#clip1_107_1718)">
<path d="M52.6675 11.5522C53.2845 10.9511 53.5023 10.0688 53.236 9.25011C52.9701 8.43108 52.2754 7.84536 51.4229 7.72148L46.1593 6.95667C45.8921 6.91768 45.6612 6.74995 45.5418 6.508L43.1878 1.73795C42.8067 0.96591 42.0349 0.486328 41.1738 0.486328C40.3127 0.486328 39.5409 0.96591 39.1598 1.73795C39.1598 1.738 36.8058 6.50795 36.8058 6.50795C36.6864 6.75 36.4555 6.91772 36.1887 6.95662L30.9248 7.72143C30.0722 7.84536 29.3775 8.43108 29.1118 9.24968C28.8454 10.0688 29.0631 10.9511 29.6799 11.5521L33.4889 15.2653C33.6821 15.4535 33.7703 15.7247 33.7248 15.9904L32.8254 21.2334C32.6801 22.0823 33.0225 22.9239 33.7189 23.4298C34.4155 23.9359 35.3218 24.0015 36.0844 23.6009L40.7924 21.1256C41.0312 21.0001 41.3164 21.0002 41.5549 21.1255L46.2633 23.6009C47.0258 24.0015 47.9322 23.9359 48.6288 23.4298C49.3252 22.9238 49.6676 22.0823 49.5222 21.2334L48.6228 15.9907C48.5773 15.7247 48.6655 15.4535 48.8588 15.2651L52.6675 11.5522Z" fill="#0345FF"/>
</g>
<g clip-path="url(#clip2_107_1718)">
<path d="M81.6675 11.5522C82.2845 10.9511 82.5023 10.0688 82.236 9.25011C81.9701 8.43108 81.2754 7.84536 80.4229 7.72148L75.1593 6.95667C74.8921 6.91768 74.6612 6.74995 74.5418 6.508L72.1878 1.73795C71.8067 0.96591 71.0349 0.486328 70.1738 0.486328C69.3127 0.486328 68.5409 0.96591 68.1598 1.73795C68.1598 1.738 65.8058 6.50795 65.8058 6.50795C65.6864 6.75 65.4555 6.91772 65.1887 6.95662L59.9248 7.72143C59.0722 7.84536 58.3775 8.43108 58.1118 9.24968C57.8454 10.0688 58.0631 10.9511 58.6799 11.5521L62.4889 15.2653C62.6821 15.4535 62.7703 15.7247 62.7248 15.9904L61.8254 21.2334C61.6801 22.0823 62.0225 22.9239 62.7189 23.4298C63.4155 23.9359 64.3218 24.0015 65.0844 23.6009L69.7924 21.1256C70.0312 21.0001 70.3164 21.0002 70.5549 21.1255L75.2633 23.6009C76.0258 24.0015 76.9322 23.9359 77.6288 23.4298C78.3252 22.9238 78.6676 22.0823 78.5222 21.2334L77.6228 15.9907C77.5773 15.7247 77.6655 15.4535 77.8588 15.2651L81.6675 11.5522Z" fill="#0345FF"/>
</g>
<g clip-path="url(#clip3_107_1718)">
<path d="M110.668 11.5522C111.285 10.9511 111.502 10.0688 111.236 9.25011C110.97 8.43108 110.275 7.84536 109.423 7.72148L104.159 6.95667C103.892 6.91768 103.661 6.74995 103.542 6.508L101.188 1.73795C100.807 0.96591 100.035 0.486328 99.1738 0.486328C98.3127 0.486328 97.5409 0.96591 97.1598 1.73795C97.1598 1.738 94.8058 6.50795 94.8058 6.50795C94.6864 6.75 94.4555 6.91772 94.1887 6.95662L88.9248 7.72143C88.0722 7.84536 87.3775 8.43108 87.1118 9.24968C86.8454 10.0688 87.0631 10.9511 87.6799 11.5521L91.4889 15.2653C91.6821 15.4535 91.7703 15.7247 91.7248 15.9904L90.8254 21.2334C90.6801 22.0823 91.0225 22.9239 91.7189 23.4298C92.4155 23.9359 93.3218 24.0015 94.0844 23.6009L98.7924 21.1256C99.0312 21.0001 99.3164 21.0002 99.5549 21.1255L104.263 23.6009C105.026 24.0015 105.932 23.9359 106.629 23.4298C107.325 22.9238 107.668 22.0823 107.522 21.2334L106.623 15.9907C106.577 15.7247 106.665 15.4535 106.859 15.2651L110.668 11.5522Z" fill="#0345FF"/>
</g>
<g clip-path="url(#clip4_107_1718)">
<path d="M139.668 11.5522C140.285 10.9511 140.502 10.0688 140.236 9.25011C139.97 8.43108 139.275 7.84536 138.423 7.72148L133.159 6.95667C132.892 6.91768 132.661 6.74995 132.542 6.508L130.188 1.73795C129.807 0.96591 129.035 0.486328 128.174 0.486328C127.313 0.486328 126.541 0.96591 126.16 1.73795C126.16 1.738 123.806 6.50795 123.806 6.50795C123.686 6.75 123.455 6.91772 123.189 6.95662L117.925 7.72143C117.072 7.84536 116.377 8.43108 116.112 9.24968C115.845 10.0688 116.063 10.9511 116.68 11.5521L120.489 15.2653C120.682 15.4535 120.77 15.7247 120.725 15.9904L119.825 21.2334C119.68 22.0823 120.022 22.9239 120.719 23.4298C121.415 23.9359 122.322 24.0015 123.084 23.6009L127.792 21.1256C128.031 21.0001 128.316 21.0002 128.555 21.1255L133.263 23.6009C134.026 24.0015 134.932 23.9359 135.629 23.4298C136.325 22.9238 136.668 22.0823 136.522 21.2334L135.623 15.9907C135.577 15.7247 135.665 15.4535 135.859 15.2651L139.668 11.5522Z" fill="#0345FF"/>
</g>
<defs>
<clipPath id="clip0_107_1718">
<rect width="24.3477" height="24.3477" fill="white"/>
</clipPath>
<clipPath id="clip1_107_1718">
<rect width="24.3477" height="24.3477" fill="white" transform="translate(28.9219)"/>
</clipPath>
<clipPath id="clip2_107_1718">
<rect width="24.3477" height="24.3477" fill="white" transform="translate(57.8281)"/>
</clipPath>
<clipPath id="clip3_107_1718">
<rect width="24.3477" height="24.3477" fill="white" transform="translate(86.7344)"/>
</clipPath>
<clipPath id="clip4_107_1718">
<rect width="24.3477" height="24.3477" fill="white" transform="translate(115.648)"/>
</clipPath>
</defs>
</svg>
