<svg width="242" height="78" viewBox="0 0 242 78" fill="none" xmlns="http://www.w3.org/2000/svg">
<path d="M0.898755 74.4356C0.877079 73.9963 0.83641 73.5382 0.973262 73.1254C1.04332 72.8986 1.45473 72.6227 1.75645 72.5773C2.29934 72.511 2.83692 72.5656 3.25563 72.5902C4.23403 71.1825 5.74292 70.4926 5.94985 68.8911C7.73972 68.6378 8.31655 66.8039 9.57695 65.8344C10.0316 65.4745 10.4304 65.0191 10.7895 64.5674C10.9786 64.3305 11.1335 63.977 11.1459 63.6945C11.1738 63.0106 11.9624 62.8027 12.0632 62.3132C12.1911 61.6405 12.3349 61.0662 12.9174 60.5359C13.1245 60.3575 13.1811 59.9514 13.1947 59.63C13.207 59.3475 13.2918 59.2201 13.5889 59.2955C13.688 59.3069 13.7654 59.3805 13.8635 59.4324C14.4481 59.7838 13.8475 60.757 14.5345 61.0798C14.5932 61.095 14.5544 61.5589 14.4302 61.6497C14.0152 62.006 14.1557 62.4754 13.9992 62.8703C13.711 63.5562 12.773 63.9974 12.9938 64.9214C13.0117 64.9799 12.8857 65.1105 12.8029 65.1981C12.4681 65.5477 12.1349 65.8568 11.8198 66.2244C11.377 66.7638 10.7423 67.1183 10.5137 67.8201C11.4204 67.6424 12.4745 67.3116 12.6834 67.0933C13.3298 66.4565 13.8644 65.6288 14.9009 65.7014C15.4264 64.6131 16.5997 64.7743 17.4244 64.1827C17.7133 63.9571 18.2284 64.074 18.6047 63.681C19.1294 63.0943 19.6012 62.3326 20.5349 62.4734C21.0993 61.8838 21.6827 61.3123 22.2669 60.7414C22.4128 60.5885 22.6604 60.407 22.8197 60.4334C23.6363 60.5042 23.9667 59.7739 24.7562 59.0652C25.1353 59.0933 25.772 59.1594 26.2292 59.22C26.9161 58.5802 27.4166 58.0963 27.9163 57.6126C29.7575 57.5756 31.0878 55.4166 33.0535 55.7507C33.4513 54.8343 34.5625 55.5218 35.0413 54.5987C35.476 53.7589 36.8133 54.2869 37.2587 53.206C37.3245 53.0604 37.8835 53.0925 38.169 52.948C38.8425 52.6303 39.6707 52.4187 40.1533 51.8764C40.9706 50.9844 41.8144 51.3743 42.6446 51.1229C42.847 51.0653 42.9389 50.7771 43.145 50.6391C43.4132 50.4351 43.6852 50.1516 43.9661 50.1279C44.8313 49.9937 45.765 50.1344 46.3276 49.1242C47.5062 48.663 48.7062 48.1792 49.9045 47.736C50.4123 47.5526 50.9418 47.8084 51.4991 47.3796C51.8933 47.045 52.4605 46.8767 52.9657 46.7332C54.3027 46.3388 55.5189 45.4526 56.8659 45.2777C57.5691 45.1981 58.1542 45.0875 58.6205 44.446C59.0455 43.8488 59.9261 44.3153 60.377 43.5746C60.3977 43.5529 60.8867 43.8117 61.164 43.8684C62.3544 44.0875 63.4796 43.4902 64.4484 42.7862C65.1093 42.2891 65.4595 42.0387 66.0781 42.547C66.1941 42.6573 66.8163 42.1234 67.1998 42.03C68.0461 41.8777 68.9763 42.0996 69.5786 41.0858C69.6226 41.0016 69.7477 40.8704 69.8279 40.8637C70.4913 40.7871 71.1505 40.7909 71.8158 40.6744C72.4209 40.5422 73.0105 40.3115 73.6191 40.0989C74.1406 41.0171 74.7275 39.9049 75.2453 39.9408C75.9818 40.0182 76.3561 39.2038 77.0737 39.2632C77.9516 39.3084 78.8826 39.0287 79.7398 39.0965C80.6564 39.1785 81.4037 38.5134 82.2481 38.4009C83.9165 38.1984 85.5606 38.0988 87.2461 37.955C88.8919 37.8149 90.581 37.5907 92.2421 37.549C93.844 37.493 95.4645 36.9939 97.0419 37.5406C97.8902 37.8097 99.04 37.5714 99.9907 37.3097C101.163 37.0091 102.025 37.9186 103.101 37.5255C104.157 37.155 104.927 37.8511 105.889 37.8094C106.349 37.7905 106.75 38.2579 107.355 38.1257C108.324 37.9232 109.143 38.4144 110.035 38.5995C110.967 38.7806 110.948 38.7619 112.754 38.1466C113.524 37.8809 112.904 37.4124 113.176 37.1281C113.657 36.6263 114.178 36.12 114.658 35.6182C115.912 35.772 116.341 34.592 117.089 33.9267C118.021 33.1454 118.616 31.8312 120.038 31.7704C120.799 30.3212 122.635 30.4058 123.49 29.0896C123.897 28.4331 124.737 28.9026 125.227 28.1995C125.63 27.6233 126.19 27.1545 126.671 26.652C126.734 26.5867 126.875 26.5545 126.974 26.566C127.911 26.6271 128.27 25.7136 128.869 25.2419C129.469 24.7695 130.303 24.8988 130.876 24.1081C131.386 23.3825 132.038 22.6247 133.055 22.6784C133.497 21.6787 134.667 21.9195 135.235 21.2495C136.076 20.2556 137.215 19.7973 138.167 19.0346C138.911 18.4498 139.943 18.6423 140.423 17.6786C141.234 17.4093 141.993 16.9633 142.804 16.6938C143.493 16.4746 144.153 15.9767 144.84 15.7981C145.75 15.5805 146.375 14.9654 147.115 14.5014C147.751 14.1056 148.532 14.0592 149.264 13.7964C149.446 13.7208 149.615 13.5055 149.783 13.3314C150.079 12.945 150.426 12.775 150.928 12.7117C151.532 12.6207 152.039 11.9755 152.755 12.0754C153.153 12.1216 153.557 12.0065 153.99 11.7088C155.431 10.7034 158.684 9.4237 160.197 9.11449C160.499 9.06829 160.904 8.95379 161.072 8.73855C161.56 8.07524 162.166 7.94367 162.846 7.92576C163.407 7.91801 164.003 7.98779 164.493 7.74503C165.004 7.48128 165.587 7.41133 165.958 7.13915C166.72 6.61285 167.533 6.30287 168.301 6.11749C169.129 5.90589 169.984 5.55238 170.788 5.44363C172.196 5.24395 173.513 4.36907 174.925 4.55009C175.124 4.57283 175.445 4.5454 175.55 4.43663C176.267 3.53257 177.258 4.2305 178 3.68616C178.949 3.00312 179.942 3.15965 180.862 3.16141C181.782 3.16315 182.471 2.44229 183.353 2.40721C184.234 2.37213 185.138 2.2755 186.021 2.19988C187.024 2.11462 188.031 1.94827 189.01 1.96511C189.928 2.00742 190.599 1.26851 191.52 1.22972C193.524 1.13955 195.516 0.828595 197.499 0.760182C199.422 0.676693 201.385 0.128424 203.302 0.666659C204.171 0.913151 205.3 0.696621 206.251 0.435604C207.303 0.144647 208.028 0.965422 209.038 0.718727C209.886 0.526689 210.727 0.494564 211.51 0.909161C211.901 1.11685 212.761 0.642462 213.112 0.853104C213.598 1.19305 214.057 1.21382 214.599 1.14759C215.161 1.09938 215.747 0.949092 216.264 1.0255C216.741 1.10486 217.127 1.43344 217.729 1.3823C218.09 1.35114 218.346 1.93111 218.855 1.70716C219.916 1.21573 220.633 2.23774 221.644 1.95049C222.614 1.70752 223.38 2.52459 224.434 2.19383C225.022 2.00375 225.489 2.78595 226.221 2.48263C226.898 3.50837 228.006 3.31359 229.113 3.15937C229.574 3.60064 230.016 4.02463 230.478 4.46668C231.618 3.96781 231.928 5.64643 233.027 5.19183C233.579 5.84647 234.765 5.22377 235.187 6.13057C235.648 7.07422 236.909 6.56573 237.556 7.35263C238.392 8.40405 239.477 9.23424 240.437 10.1957C240.648 10.3979 240.837 10.6624 240.905 10.9373C241.219 12.5356 242.12 13.9423 241.583 15.7732C240.548 15.6609 240.193 15.0696 240.277 14.0191C240.334 13.6137 240.558 13.0327 240.086 12.8325C239.281 12.4802 239.704 11.4609 239.185 10.964C238.666 10.4671 238.064 10.0166 237.629 9.43196C237.193 8.84728 236.329 9.44256 235.954 8.8324C235.26 7.74885 233.97 7.51766 232.934 6.94433C232.523 6.71862 231.9 6.79152 231.532 6.52229C231.048 6.14257 230.647 5.67506 229.857 5.92351C229.526 5.2293 228.642 5.80655 228.202 5.34276C227.759 4.91875 226.877 5.45544 226.525 4.78375C225.735 5.03143 225.356 4.54217 224.873 4.12188C224.758 4.01137 224.479 3.9953 224.276 4.05291C223.489 4.22025 222.845 3.85385 222.147 3.8133C221.489 3.76902 221.095 3.14083 220.383 3.42163C219.57 3.73162 218.928 3.32544 218.297 3.09796C217.391 2.77484 216.455 2.67395 215.504 2.93496C214.655 3.16833 214.163 2.48822 213.399 2.59326C212.635 2.6983 211.726 2.91657 211.158 2.62385C210.395 2.22804 209.637 2.67324 208.964 2.49004C208.589 2.3815 208.342 2.0621 207.84 2.12462C206.955 2.24004 206.053 2.29688 205.17 2.37251C204.408 2.43775 203.605 2.50596 202.842 2.5712C202.174 1.80529 201.214 2.30885 200.393 2.31848C199.512 2.35356 198.627 2.46897 197.725 2.52581C196.842 2.60068 195.959 2.67632 195.076 2.75194C194.073 2.8372 193.069 2.92244 192.066 3.00846C191.183 3.08333 190.297 3.23929 189.398 3.21579C188.399 3.18014 187.514 3.79717 186.568 3.93806C185.361 4.12148 184.05 3.91203 182.932 4.34859C181.632 4.82023 180.388 4.92625 179.102 5.07577C178.88 5.11458 178.565 5.02188 178.439 5.15239C177.772 5.81095 176.95 5.86112 176.274 5.75826C175.321 5.59877 174.645 6.45856 173.764 6.49366C173.102 6.52971 172.415 6.7092 171.778 6.64317C170.963 6.53189 170.372 7.26413 169.629 7.34741C169.027 7.39857 168.52 8.04379 167.822 8.00323C167.583 7.98345 167.221 8.51543 167.002 8.4739C165.89 8.28796 164.93 9.25258 163.829 9.28592C162.687 9.32301 161.617 10.0562 160.538 10.5288C159.704 10.8613 158.859 10.9731 158.07 11.2206C157.197 11.5156 156.296 12.0342 155.405 12.3103C154.757 12.4861 154.549 13.1655 154.062 13.3271C153.432 13.5615 152.753 13.539 152.091 13.6155C151.656 14.4553 150.62 13.8813 150.084 14.7494C149.631 15.5299 148.328 15.12 147.904 16.1783C147.214 16.4381 146.503 16.6792 145.792 16.9599C144.897 17.3171 144.032 17.9125 143.146 18.0684C142.099 18.2377 141.68 19.6774 140.533 19.3743C140.041 20.118 139.277 20.223 138.583 20.5632C138.011 20.8524 137.628 21.4069 136.862 21.5517C136.216 21.6869 135.791 22.7865 134.88 22.5835C134.297 23.1145 133.807 23.8581 132.893 23.695C132.475 24.1323 132.097 24.5651 131.659 24.9837C131.514 25.1366 131.268 25.2775 131.088 25.2729C130.249 25.224 129.862 25.8993 129.481 26.4124C128.972 27.0982 128.209 26.7017 127.724 27.2846C126.989 28.1294 126.292 29.0109 125.041 29.2784C124.497 29.3844 124.025 30.1468 123.525 30.6305C122.41 30.525 122.093 31.8957 121.366 32.0781C120.254 32.3533 119.624 33.0892 118.933 33.8094C118.035 34.7485 117.154 35.7057 116.217 36.608C115.926 36.8735 115.423 36.9369 115.017 37.0918C114.987 37.3148 114.974 37.637 114.943 37.8997C114.58 37.9714 114.259 37.9981 113.954 38.1247C113.771 38.2002 113.538 38.5214 113.573 38.6385C113.62 38.9353 113.781 39.383 113.961 39.3877C115.597 39.4885 117.025 40.229 118.637 40.4327C119.253 40.5206 119.718 40.8823 120.4 40.8237C120.962 40.7763 121.141 41.7436 121.967 41.6131C122.733 41.4675 122.896 42.3358 123.424 42.6322C123.6 42.7172 123.795 42.8608 123.976 42.8258C124.824 42.6329 125.158 43.246 125.499 43.6984C125.954 44.3011 126.798 43.7284 127.195 44.2755C127.441 44.5956 127.874 44.759 127.791 45.308C127.743 45.5128 127.75 45.8124 127.886 45.9012C129.033 46.7059 128.659 47.9814 128.431 49.1443C128.307 49.7357 128.055 50.4999 127.599 50.8592C127.105 51.2219 126.367 51.1447 125.901 51.7861C125.732 52.0015 125.33 52.0356 125.025 52.1614C124.314 52.4429 123.679 52.7982 122.877 52.8663C122.074 52.9346 121.288 53.563 120.389 53.5394C119.311 53.5112 118.183 53.6872 117.06 53.7836C115.855 53.886 114.597 53.853 113.405 54.1348C112.254 54.4137 111.408 53.6032 110.297 53.8783C109.428 54.0929 108.661 53.7775 107.825 53.688C106.809 53.5945 106.525 52.7358 105.842 52.3334C105.745 52.2814 105.669 52.1672 106.331 50.6669C107.35 51.1817 108.59 51.156 109.652 51.5875C110.544 51.3105 111.283 51.8092 112.103 51.7996C113.423 51.807 114.75 51.6141 116.096 51.4788C117.3 51.3765 118.568 51.1676 119.746 51.208C120.865 51.2332 121.833 50.5689 122.879 50.3997C123.162 50.3354 123.46 49.9085 123.699 49.9282C124.756 49.9783 125.557 49.4895 126.348 48.7402C126.536 48.5437 127.022 48.8828 127.1 48.4549C127.178 48.0277 127.263 47.4383 127.053 47.1956C126.134 46.1915 125.153 45.2922 124.151 44.3751C124.035 44.2646 123.753 44.3289 123.555 44.2648C122.508 43.9738 121.29 43.9371 120.611 42.952C120.555 42.8565 120.48 42.7424 120.399 42.749C119.459 42.7689 118.446 42.5952 117.807 42.1079C117.033 41.4921 116.095 41.4317 115.261 41.3024C114.467 41.1694 113.626 41.2007 112.836 40.9476C112.461 40.8391 112.087 40.6907 108.478 46.1924C110.628 41.6367 109.5 42.315 109.32 43.7341C109.283 44.1583 108.545 44.5825 108.167 45.0154C107.643 45.6019 106.844 46.051 107.026 46.9777C106.577 47.6778 106.384 48.4563 106.153 49.1979C105.46 49.9991 105.344 49.8886 105.056 49.6127C105.306 48.8891 105.495 48.191 105.805 47.4832C106.138 46.6727 106.198 45.725 107.099 45.2064C106.93 43.998 108.032 43.4631 108.645 42.6686C109.131 42.0451 109.967 41.6736 110.101 40.8394C109.901 39.8939 109.02 40.39 108.488 40.2151C106.89 39.6893 105.273 39.1453 103.468 39.2591C103.289 39.2543 103.14 38.986 102.96 38.9814C101.638 39.0543 100.294 39.149 98.987 39.3202C97.6591 39.514 96.5236 38.9286 95.1956 39.1224C93.4247 39.3938 91.6428 39.4451 89.8771 39.5956C88.874 39.6808 87.8703 39.7669 86.8672 39.8521C85.984 39.9278 85.0998 40.0431 84.1986 40.0595C83.2181 40.0832 82.3232 40.4404 81.3706 40.742C80.6207 40.9867 79.8265 40.8536 79.0603 40.9993C78.3346 41.1411 77.6234 41.4226 76.894 41.6449C76.0639 41.8962 75.1257 41.3749 74.4065 42.3187C73.6438 42.3832 72.8605 42.4702 72.0979 42.5354C71.8972 42.5525 71.5973 42.5581 71.4911 42.7074C70.7988 43.4682 69.9047 42.8627 69.3068 43.2945C68.6667 43.77 68.0825 43.8804 67.4432 43.8543C66.6635 43.8609 66.0856 44.7726 65.2959 44.5187C63.6744 45.0582 61.9656 45.2645 60.4107 46.1187C60.2063 46.2161 60.0182 46.4127 59.8382 46.408C58.6397 46.3901 57.572 47.0423 56.4926 47.5157C55.3122 48.0174 54.1068 48.6214 52.8976 48.8446C51.9314 49.0072 51.0681 49.562 50.1019 49.7245C49.5169 49.8351 48.9749 50.3624 48.3871 50.5533C47.7783 50.7651 47.1616 51.1789 46.6187 51.2451C45.9156 51.3255 45.5069 52.0218 44.7892 51.9625C44.033 51.8663 43.89 52.9016 43.1435 53.0652C42.1334 53.3119 41.1513 53.8373 40.1555 54.2229C39.0588 54.6369 37.9406 55.0735 37.0259 55.9134C36.4146 55.7048 36.0392 56.5589 35.5414 56.5013C34.8255 56.4014 34.4323 57.1978 33.7119 57.2187C33.2914 57.2347 32.8143 58.1173 32.4128 58.1514C31.7114 58.1912 31.2236 58.8545 30.5852 58.829C29.7668 58.7988 29.5589 59.9392 28.9413 59.8919C27.9463 59.7759 27.6728 61.0627 26.9552 61.0033C25.9585 60.9279 25.7687 62.1276 24.9673 62.1553C24.1868 62.162 23.6314 63.0115 22.8372 62.8784C22.389 64.0403 21.1195 63.7874 20.3497 64.5149C19.6421 65.1764 18.5778 65.2871 17.865 66.0703C16.7737 65.8627 16.3418 67.584 15.2369 67.2366C14.7201 68.1228 13.7585 68.1645 13.0384 68.6474C12.2975 69.1519 11.8385 70.0938 10.8012 70.0213C10.4826 70.4701 9.8324 70.7253 9.8804 71.4838C10.4035 71.3989 10.9275 71.3145 11.4334 71.1709C11.7161 71.1066 12.1898 70.7655 12.2671 70.8391C12.8786 71.5089 13.6988 71.0382 14.4381 71.0353C15.098 71.039 15.7624 70.9219 16.4242 70.8858C16.7692 71.7189 17.9862 70.8326 18.3313 71.6658C18.3294 71.7056 18.5509 71.6668 18.6527 71.6383C20.5327 71.1374 22.1381 71.9628 23.8696 72.1562C24.109 72.1759 24.2524 72.5651 24.499 72.8845C23.6446 73.238 22.9126 73.0397 22.2049 73.2409C21.3748 73.4923 20.8409 72.8558 20.0782 72.9202C19.3156 72.9855 18.5133 73.0536 17.7507 73.1189C16.9882 73.1841 16.1851 73.2524 15.4225 73.3177C14.54 73.3924 13.6568 73.4681 12.7736 73.543C12.011 73.6083 11.2087 73.6764 10.4461 73.7417C9.68357 73.8069 8.78951 73.6625 8.13584 73.9989C7.40025 74.3825 6.7124 74.5613 5.95158 74.586C5.16999 74.6324 4.40745 74.6977 3.70604 74.7374C3.1444 75.2468 2.78074 75.8193 1.97668 75.928C1.45268 76.0124 0.926907 76.6387 0.224688 77.1801C0.730527 76.0738 0.984345 75.2706 0.898755 74.4356Z" fill="#0345FF"/>
</svg>
