<svg width="11" height="13" viewBox="0 0 11 13" fill="none" xmlns="http://www.w3.org/2000/svg">
<path fill-rule="evenodd" clip-rule="evenodd" d="M4.74606 12.0799C4.55557 12.2561 4.23902 12.2629 4.03901 12.0951C3.83899 11.9273 3.83127 11.6485 4.02176 11.4724L9.15738 7.01333C9.40265 6.78652 9.40265 6.4301 9.15738 6.20328L4.02176 1.74423C3.83127 1.56808 3.83899 1.28927 4.039 1.12151C4.23901 0.953742 4.55557 0.960542 4.74606 1.1367L10.5386 6.20328C10.7839 6.4301 10.7839 6.78652 10.5386 7.01333L4.74606 12.0799Z" fill="#0345FF"/>
<path fill-rule="evenodd" clip-rule="evenodd" d="M1 6.59818C1 6.35492 1.22391 6.15772 1.50011 6.15772H9.25702C9.53323 6.15772 9.75713 6.35492 9.75713 6.59818C9.75713 6.84144 9.53323 7.03864 9.25702 7.03864H1.50011C1.22391 7.03864 1 6.84144 1 6.59818Z" fill="#0345FF"/>
<path fill-rule="evenodd" clip-rule="evenodd" d="M4.74606 12.0799C4.55557 12.2561 4.23902 12.2629 4.03901 12.0951C3.83899 11.9273 3.83127 11.6485 4.02176 11.4724L9.15738 7.01333C9.40265 6.78652 9.40265 6.4301 9.15738 6.20328L4.02176 1.74423C3.83127 1.56808 3.83899 1.28927 4.039 1.12151C4.23901 0.953742 4.55557 0.960542 4.74606 1.1367L10.5386 6.20328C10.7839 6.4301 10.7839 6.78652 10.5386 7.01333L4.74606 12.0799Z" stroke="#0345FF" stroke-width="0.5"/>
<path fill-rule="evenodd" clip-rule="evenodd" d="M1 6.59818C1 6.35492 1.22391 6.15772 1.50011 6.15772H9.25702C9.53323 6.15772 9.75713 6.35492 9.75713 6.59818C9.75713 6.84144 9.53323 7.03864 9.25702 7.03864H1.50011C1.22391 7.03864 1 6.84144 1 6.59818Z" stroke="#0345FF" stroke-width="0.5"/>
</svg>
