<svg width="31" height="24" viewBox="0 0 31 24" fill="none" xmlns="http://www.w3.org/2000/svg">
<g clip-path="url(#clip0_107_1233)">
<path d="M12.8871 5.42136H6.23389C5.20063 5.42136 4.35935 6.25826 4.35935 7.28778V19.9666C4.35935 20.9961 5.20034 21.833 6.23389 21.833H12.8871C13.9166 21.833 14.7535 20.9957 14.7535 19.9666V7.28778C14.7535 6.25863 13.9163 5.42136 12.8871 5.42136ZM14.0215 19.9669C14.0215 20.5924 13.5124 21.1012 12.8871 21.1012H6.23389C5.6036 21.1012 5.09143 20.5916 5.09143 19.9669V7.28778C5.09143 6.66278 5.60359 6.15344 6.23389 6.15344H12.8871C13.5124 6.15344 14.0215 6.66251 14.0215 7.28778V19.9669Z" fill="white" stroke="white" stroke-width="0.17193"/>
<path d="M10.7556 19.6787H8.37383C8.21894 19.6787 8.09375 19.8042 8.09375 19.9588C8.09375 20.1134 8.21894 20.2389 8.37383 20.2389H10.7556C10.9105 20.2389 11.0357 20.1134 11.0357 19.9588C11.0357 19.8042 10.9102 19.6787 10.7556 19.6787Z" fill="white"/>
<rect x="13.4141" y="5.30469" width="5.12142" height="16.0044" fill="#020827"/>
</g>
<path d="M23.6538 1.7905H15.3373C14.0575 1.7905 13.0156 2.8271 13.0156 4.10203V19.9506C13.0156 21.2255 14.0571 22.2621 15.3373 22.2621H23.6538C24.9288 22.2621 25.9654 21.2251 25.9654 19.9506V4.10203C25.9654 2.82746 24.9284 1.7905 23.6538 1.7905ZM25.0932 19.9509C25.0932 20.7447 24.4473 21.3903 23.6538 21.3903H15.3373C14.5377 21.3903 13.8877 20.7438 13.8877 19.9509V4.10203C13.8877 3.30877 14.5377 2.66262 15.3373 2.66262H23.6538C24.4473 2.66262 25.0932 3.30858 25.0932 4.10203V19.9509Z" fill="white" stroke="white" stroke-width="0.17193"/>
<path d="M20.9914 19.5908H18.0142C17.8206 19.5908 17.6641 19.7477 17.6641 19.9409C17.6641 20.1342 17.8206 20.291 18.0142 20.291H20.9914C21.185 20.291 21.3415 20.1342 21.3415 19.9409C21.3415 19.7477 21.1846 19.5908 20.9914 19.5908Z" fill="white"/>
<defs>
<clipPath id="clip0_107_1233">
<rect width="17.925" height="17.925" fill="white" transform="translate(0.601562 4.66455)"/>
</clipPath>
</defs>
</svg>
