<svg width="31" height="24" viewBox="0 0 31 24" fill="none" xmlns="http://www.w3.org/2000/svg">
<g clip-path="url(#clip0_107_1261)">
<path d="M18.7466 0.822266H4.57618C4.16799 0.822266 3.83594 1.15432 3.83594 1.56251V22.1836C3.83594 22.5918 4.16799 22.9238 4.57618 22.9238H18.7466C19.1548 22.9238 19.4868 22.5918 19.4868 22.1836V1.56251C19.4868 1.15432 19.1548 0.822266 18.7466 0.822266ZM11.2208 1.79156H12.1021C12.1603 1.79156 12.2079 1.83894 12.2079 1.89731C12.2079 1.95569 12.1603 2.00306 12.1021 2.00306H11.2208C11.1625 2.00306 11.1151 1.95569 11.1151 1.89731C11.1151 1.83894 11.1622 1.79156 11.2208 1.79156ZM11.6614 22.3775C11.3498 22.3775 11.0973 22.125 11.0973 21.8135C11.0973 21.5019 11.3498 21.2494 11.6614 21.2494C11.9729 21.2494 12.2254 21.5019 12.2254 21.8135C12.2254 22.125 11.9729 22.3775 11.6614 22.3775ZM18.5351 20.6502H4.75617V2.88437H18.5351V20.6502Z" fill="white"/>
</g>
<g clip-path="url(#clip1_107_1261)">
<path d="M22.2654 22.0751C22.2654 22.1635 22.2129 22.2396 22.1374 22.2741H22.0467H21.9559C21.8804 22.2396 21.828 22.1635 21.828 22.0751C21.828 21.9543 21.9259 21.8564 22.0467 21.8564C22.1674 21.8564 22.2654 21.9543 22.2654 22.0751ZM21.8202 6.92591C21.8165 6.8995 21.8145 6.87251 21.8145 6.84504C21.8145 6.81758 21.8165 6.79058 21.8202 6.76418H22.2732C22.277 6.79059 22.2789 6.81759 22.2789 6.84504C22.2789 6.87249 22.277 6.89949 22.2732 6.92591H21.8202ZM26.653 20.5355H17.4163V8.2499H26.653V20.5355ZM27.4648 5.3729H16.6286C15.9574 5.3729 15.4125 5.91786 15.4125 6.58902V22.3581C15.4125 23.0292 15.9574 23.5742 16.6286 23.5742H27.4648C28.1359 23.5742 28.6809 23.0292 28.6809 22.3581V6.58902C28.6809 5.91786 28.1359 5.3729 27.4648 5.3729Z" fill="white" stroke="#020827" stroke-width="1.30009"/>
<rect x="17.5" y="7.97314" width="3.90028" height="13.0009" fill="#020827"/>
</g>
<defs>
<clipPath id="clip0_107_1261">
<rect width="22.1016" height="22.1016" fill="white" transform="translate(0.601562 0.822266)"/>
</clipPath>
<clipPath id="clip1_107_1261">
<rect width="18.1945" height="20.9936" fill="white" transform="translate(12.4922 2.77539)"/>
</clipPath>
</defs>
</svg>
