<svg width="39" height="39" viewBox="0 0 39 39" fill="none" xmlns="http://www.w3.org/2000/svg">
<path d="M34.2237 15.0519L20.2839 4.16609C19.815 3.8113 19.1813 3.8113 18.7124 4.16609L4.7725 15.0519C4.46837 15.2927 4.29102 15.6602 4.29102 16.053V34.1369C4.29102 34.6691 4.72184 35.1 5.25407 35.1H8.16883C8.70106 35.1 9.13189 34.6691 9.13189 34.1369V21.629C9.13189 20.9319 9.70217 20.3617 10.3991 20.3617H28.5971C29.2941 20.3617 29.8644 20.9319 29.8644 21.629V34.1369C29.8644 34.6691 30.2952 35.1 30.8275 35.1H33.7422C34.2744 35.1 34.7053 34.6691 34.7053 34.1369V16.053C34.7053 15.6602 34.5279 15.2927 34.2237 15.0519V15.0519ZM19.4982 14.9378C18.1041 14.9378 16.9636 13.7973 16.9636 12.3906C16.9636 10.9966 18.1041 9.85608 19.4982 9.85608C20.8921 9.85608 22.0327 10.9966 22.0327 12.3906C22.0327 13.7973 20.8921 14.9378 19.4982 14.9378Z" fill="white"/>
<path d="M18.6202 31.9444V33.8327C18.6202 34.5297 18.05 35.0999 17.353 35.0999H13.4118C12.7148 35.0999 12.1445 34.5297 12.1445 33.8327V31.9444C12.1445 31.2474 12.7148 30.6771 13.4118 30.6771H17.353C18.05 30.6771 18.6202 31.2474 18.6202 31.9444Z" fill="white"/>
<path d="M26.9982 31.9444V33.8327C26.9982 34.5297 26.4279 35.1 25.7309 35.1H21.7897C21.0927 35.1 20.5225 34.5297 20.5225 33.8327V31.9444C20.5225 31.2475 21.0927 30.6772 21.7897 30.6772H25.7309C26.4279 30.6772 26.9982 31.2475 26.9982 31.9444Z" fill="white"/>
<path d="M22.8097 25.6207V27.509C22.8097 28.206 22.2395 28.7763 21.5424 28.7763H17.6012C16.9043 28.7763 16.334 28.206 16.334 27.509V25.6207C16.334 24.9238 16.9043 24.3535 17.6012 24.3535H21.5424C22.2395 24.3535 22.8097 24.9238 22.8097 25.6207Z" fill="white"/>
</svg>
